<svg xmlns="http://www.w3.org/2000/svg" viewBox="0 0 512 512">
  <path
    fill="#4CAF50"
    d="M512,256C512,114.615,397.385,0,256,0S0,114.615,0,256c0,33.385,7.69,66.154,21.846,94.154l217.846,2.462L490.154,350C506.308,322,512,289.231,512,256z"
  />
  <path
    fill="#8BC34A"
    d="M384,256c0-70.692-57.308-128-128-128S128,185.308,128,256c0,33.385,12.923,66.154,36.923,94.154l91.077-1.231l90.154,1.231C371.077,322.154,384,289.231,384,256z"
  />
  <path
    fill="#FFC107"
    d="M256,128c-70.692,0-128,57.308-128,128s57.308,128,128,128s128-57.308,128-128S326.692,128,256,128z M256,320c-35.346,0-64-28.654-64-64s28.654-64,64-64s64,28.654,64,64S291.346,320,256,320z"
  />
</svg>
